<svg version="1.1" id="Layer_1" xmlns="http://www.w3.org/2000/svg" xmlns:xlink="http://www.w3.org/1999/xlink" x="0px" y="0px"
	 width="100%" viewBox="0 0 1024 528" enable-background="new 0 0 1024 528" xml:space="preserve">
<path fill="#000000" opacity="1.000000" stroke="none" 
	d="
M141.917847,319.158264 
	C144.050674,312.878143 143.433914,311.026611 137.906647,307.924896 
	C131.804901,304.500793 125.084709,303.360718 118.186768,303.196014 
	C104.545792,302.870392 90.863083,303.412567 77.313881,301.240784 
	C68.645981,299.851440 60.547291,296.906860 53.328026,291.852997 
	C37.473549,280.754059 36.020084,261.221222 50.522961,248.297913 
	C66.290131,234.248032 84.552734,233.047211 103.891434,239.425415 
	C105.768280,240.044418 107.591415,240.826263 109.417915,241.524277 
	C111.589752,239.378708 110.630875,236.911499 110.827049,234.712021 
	C112.386017,217.233017 117.722847,201.731094 133.581970,191.932831 
	C148.320328,182.826965 168.194290,188.092407 175.827179,203.063202 
	C177.017700,205.398209 177.847153,208.018723 178.317688,210.602936 
	C181.360474,227.314041 184.054718,244.042236 179.799042,260.997467 
	C179.037796,264.030365 178.929825,267.227234 178.444229,270.927368 
	C180.968582,269.979950 181.966507,268.038849 183.287628,266.564606 
	C198.955887,249.080429 213.222092,230.346680 230.154358,213.989120 
	C233.867981,210.401581 237.493027,206.703323 241.783188,203.778351 
	C244.952072,201.617859 248.404251,200.138855 252.005127,202.469177 
	C255.857925,204.962524 255.156281,208.864365 254.026657,212.408493 
	C248.505844,229.729645 240.925354,246.231308 233.922974,262.974945 
	C224.293167,286.000977 214.156998,308.889282 208.861313,333.470398 
	C208.477432,335.252289 208.231323,337.081512 208.118347,338.901001 
	C207.666824,346.171997 207.695679,346.173798 213.669739,349.277191 
	C212.456253,352.299500 209.900757,352.097504 207.539429,351.664001 
	C204.167542,351.044952 202.514801,348.573853 201.980865,345.363586 
	C201.086273,339.984711 202.228897,334.702087 203.385529,329.544312 
	C207.958084,309.153870 215.773056,289.841766 223.659683,270.583405 
	C230.790039,253.171738 238.467361,235.982635 244.887604,218.283936 
	C246.010666,215.187973 247.322510,212.120575 247.653900,208.144836 
	C244.069305,209.178650 241.671585,211.321640 239.332703,213.530807 
	C224.893814,227.168945 212.504593,242.699554 199.028458,257.227112 
	C193.478775,263.209778 188.042465,269.297485 182.514328,275.300354 
	C180.661026,277.312805 178.629044,279.174683 175.575287,277.716980 
	C172.558441,276.276886 172.590622,273.422760 172.906769,270.785889 
	C173.896790,262.528412 175.111023,254.298004 176.209747,246.053284 
	C176.469131,244.106812 176.616272,242.145370 176.609161,240.151993 
	C168.746552,262.816345 157.752579,284.265594 151.033356,307.299072 
	C147.595306,319.084686 142.882217,330.600739 142.165512,343.076569 
	C142.059525,344.921295 141.299988,346.688202 139.408905,346.652008 
	C136.771027,346.601562 137.128067,344.155334 137.196121,342.443390 
	C137.509079,334.569733 139.132339,326.939087 141.917847,319.158264 
M162.002335,222.358551 
	C158.268860,223.952866 156.592590,228.210251 152.380951,230.707230 
	C152.022186,226.597626 153.763626,224.637039 155.594955,222.751114 
	C160.908142,217.279495 167.296829,214.837143 174.924469,216.464767 
	C175.263443,199.807831 160.336288,187.920471 144.610687,191.931931 
	C132.176788,195.103699 124.970337,203.923660 120.365334,215.203018 
	C116.980736,223.493134 116.168106,232.267227 116.276131,241.185410 
	C116.340714,246.516785 113.005554,248.606613 108.016266,246.775787 
	C103.954453,245.285294 99.985825,243.364456 95.798531,242.424240 
	C81.379868,239.186737 67.626587,240.315796 55.506149,249.852600 
	C41.477192,260.891083 41.849670,278.265259 56.293617,288.598907 
	C60.957703,291.935730 66.080757,294.232178 71.571419,295.822052 
	C82.627403,299.023438 93.966766,298.663696 105.295311,298.753082 
	C119.341660,298.863861 133.705627,297.772675 145.760391,308.452057 
	C151.372833,291.201904 158.260315,275.153656 165.018967,259.052826 
	C168.760040,250.140594 172.365509,241.158493 174.438492,231.689209 
	C175.204651,228.189362 176.191635,224.261444 172.545425,221.535660 
	C169.211685,219.043472 165.900253,220.512497 162.002335,222.358551 
z"/>
<path fill="#000000" opacity="1.000000" stroke="none" 
	d="
M869.704285,272.582886 
	C867.803528,274.215607 866.744446,276.059418 867.655212,278.085815 
	C868.673096,280.350281 871.102539,279.965027 872.991516,279.703735 
	C881.718994,278.496429 889.357849,275.282806 894.209656,267.356049 
	C894.557495,266.787872 894.819336,266.154358 895.233337,265.641937 
	C896.470154,264.111359 897.635559,262.016327 900.054504,263.499634 
	C902.362061,264.914673 902.146790,267.066589 901.066345,269.216125 
	C900.111755,271.115265 899.119263,272.995361 897.680725,275.779724 
	C901.644226,273.951355 904.686218,272.370300 907.861572,271.131042 
	C911.355957,269.767303 915.059753,268.914734 918.229553,271.803406 
	C921.361206,274.657288 920.139526,278.164673 919.292664,281.607239 
	C918.787476,283.660980 917.338257,285.486938 917.686584,287.803955 
	C919.391541,288.834045 920.674011,287.662689 921.756348,286.863739 
	C929.276306,281.313019 936.446167,275.668091 939.780334,266.172607 
	C942.559753,258.257111 946.657532,250.804596 950.352722,242.751923 
	C935.346252,240.885864 920.714905,244.237991 905.721436,242.756088 
	C907.202209,238.672684 910.071594,239.318878 912.320312,239.016296 
	C924.247620,237.411423 936.255737,237.561584 948.243225,237.820511 
	C952.087830,237.903564 954.372375,236.697388 956.122375,233.229233 
	C958.061707,229.386063 960.547424,225.790131 963.062012,222.277573 
	C964.349670,220.478943 966.077209,218.002502 968.728149,220.098373 
	C971.135620,222.001663 969.643799,224.377487 968.452759,226.383957 
	C966.359924,229.909576 963.567688,233.041107 962.039246,237.713013 
	C969.872009,238.145782 977.297363,238.452530 984.701782,239.028107 
	C986.927368,239.201111 990.880310,238.203308 990.608704,241.662628 
	C990.318115,245.364700 986.631042,243.806458 984.095703,243.695618 
	C976.442078,243.361023 968.781128,243.193497 961.128113,242.847595 
	C958.920654,242.747833 957.797363,243.847290 956.859253,245.600677 
	C946.285095,265.363800 937.089478,285.610168 934.498779,308.228119 
	C934.064636,312.018616 934.111206,315.555359 937.929382,317.765686 
	C934.217407,321.202332 930.793152,320.007446 929.471497,314.820892 
	C927.823181,308.352539 929.095581,301.913055 930.348694,295.532135 
	C931.011780,292.155762 931.856323,288.815033 932.681213,285.184509 
	C929.738403,285.739594 928.331726,287.744171 926.563660,289.148376 
	C924.459961,290.819183 922.337341,292.430664 919.767456,293.264221 
	C914.327820,295.028534 910.511597,291.997772 910.747253,286.290375 
	C910.888916,282.859161 913.118835,279.733917 912.365906,275.922974 
	C907.049438,275.656769 903.638123,279.219055 899.736145,281.471863 
	C893.253784,285.214508 892.914429,285.271667 887.996704,279.685516 
	C883.973572,281.437958 880.032043,283.616852 875.609009,284.585236 
	C867.516602,286.356964 862.256042,283.117035 860.912903,275.034698 
	C860.527161,272.713226 859.026917,272.200134 857.477478,271.267517 
	C855.640259,270.161713 853.934753,268.837158 851.929260,267.437927 
	C848.209290,269.710480 845.750000,273.298676 842.835938,276.396423 
	C841.238464,278.094727 839.761475,279.907776 838.140747,281.582611 
	C833.238159,286.649017 831.685852,286.584991 826.867737,281.009338 
	C822.189514,284.948059 817.657898,289.092316 812.789978,292.794342 
	C802.198853,300.848785 790.617188,306.947845 777.399780,309.479889 
	C775.612549,309.822266 773.739441,310.185608 771.958618,310.009186 
	C765.139465,309.333527 758.640076,307.773224 755.357483,300.800537 
	C752.307800,294.322479 755.271423,288.821960 758.706177,283.552399 
	C761.885620,278.674408 766.599182,275.471802 771.489624,272.574158 
	C775.069031,270.453339 778.807434,268.600891 783.366760,266.149292 
	C778.219666,266.108307 773.922119,265.796570 769.824463,264.352295 
	C762.476196,261.762207 759.742554,256.143311 763.697449,249.451950 
	C773.564758,232.757065 788.538574,223.281876 807.726807,221.012375 
	C815.252441,220.122238 821.349548,224.263626 823.893311,230.390625 
	C825.943665,235.329010 823.465271,245.028214 819.072815,249.358658 
	C818.080505,250.336929 817.070740,251.286682 815.608643,250.401459 
	C813.844482,249.333374 813.804565,247.748230 814.604126,246.050766 
	C815.949890,243.193573 817.626648,240.451584 818.625000,237.480011 
	C820.628540,231.516678 817.981873,227.591476 811.762756,227.116547 
	C809.293396,226.927979 806.624451,226.780380 804.315247,227.489594 
	C790.724854,231.663559 779.148438,238.935226 771.205627,250.993240 
	C767.195679,257.080811 768.819214,259.573456 776.172241,259.906097 
	C782.546936,260.194489 788.783264,258.949310 795.074524,258.332031 
	C797.762024,258.068359 800.744507,257.215454 801.802429,260.672028 
	C802.893555,264.237305 800.087280,265.638367 797.460388,266.934570 
	C789.992493,270.619537 782.380127,274.035217 775.306519,278.468628 
	C770.191528,281.674469 765.335144,285.180511 762.634277,290.877319 
	C759.377502,297.746613 761.732971,302.640320 769.163330,304.293762 
	C773.535706,305.266724 777.849243,304.386871 781.996948,303.234741 
	C800.078308,298.212311 814.388550,287.248291 827.171326,273.999023 
	C829.770325,271.305115 829.540833,267.508362 830.518799,264.195618 
	C831.365601,261.327240 831.872925,258.359680 832.686157,255.479935 
	C833.195923,253.674911 834.067322,251.778824 836.391724,252.214523 
	C838.933838,252.691055 840.033997,254.795273 839.626587,257.106598 
	C838.935364,261.028870 837.698242,264.851562 836.838318,268.748749 
	C836.289124,271.237793 834.850403,273.630859 835.705383,277.063629 
	C840.507935,272.165405 844.961060,267.754456 848.727539,262.686707 
	C851.945557,258.356934 853.107544,258.457367 855.386353,263.199402 
	C857.967651,268.570984 861.173157,269.152954 865.129272,264.814697 
	C868.521729,261.094543 872.774475,259.032837 877.524963,257.736938 
	C880.475037,256.932190 882.920471,257.665222 884.406189,260.291962 
	C885.823120,262.797150 884.248962,264.735779 882.510071,266.427155 
	C879.028992,269.813446 874.567261,271.188171 869.704285,272.582886 
z"/>
<path fill="#000000" opacity="1.000000" stroke="none" 
	d="
M467.204987,264.040466 
	C471.247498,264.494415 475.203491,262.644501 479.089691,265.966888 
	C473.349640,268.910736 467.535370,269.141907 461.989838,269.983856 
	C450.377167,271.746887 448.782776,273.166046 448.377808,285.026581 
	C447.978119,296.733124 444.751892,307.644836 439.529999,318.038696 
	C439.157349,318.780365 438.808777,319.563263 438.290131,320.196991 
	C436.772949,322.050995 435.703827,324.954254 432.505890,323.824066 
	C429.145355,322.636414 429.614685,319.719543 430.127350,317.056458 
	C431.672333,309.031403 433.842651,301.178253 436.680023,293.504089 
	C438.642578,288.196014 440.467133,282.836243 442.303375,277.482422 
	C443.520447,273.933746 442.571198,272.081024 438.438995,272.316895 
	C434.618652,272.534973 430.776031,272.443298 426.945679,272.366852 
	C425.391388,272.335876 423.102142,272.940765 422.835388,270.674011 
	C422.535889,268.128906 425.015289,268.059998 426.717743,267.786133 
	C430.165161,267.231628 433.646545,266.861389 437.125214,266.535583 
	C440.892822,266.182709 442.375183,264.677612 441.272614,260.633301 
	C436.992279,244.932648 429.019470,232.263321 413.486816,225.512283 
	C412.724243,225.180847 411.999847,224.762100 411.254364,224.390671 
	C409.215271,223.374802 407.468536,222.141632 407.889709,219.467438 
	C408.270691,217.048386 410.172119,216.283157 412.180939,215.900055 
	C419.696411,214.466736 427.197021,212.897186 434.765411,211.813263 
	C445.135162,210.328156 455.547791,209.099472 465.971924,208.061081 
	C469.323486,207.727203 471.053192,206.333038 472.006836,203.234665 
	C472.616425,201.254135 473.223572,198.696625 476.128510,199.049561 
	C478.824371,199.377106 479.441650,201.504150 479.352020,203.877365 
	C479.254791,206.452515 480.904388,206.840958 482.936798,206.889877 
	C493.258728,207.138229 503.592865,206.430618 513.909363,207.290436 
	C514.684448,207.355026 515.551392,207.068619 516.286255,206.743484 
	C521.376221,204.491776 523.928284,205.581848 525.871643,210.872437 
	C526.628845,212.933929 526.436401,214.852051 524.886414,216.434799 
	C522.953918,218.408096 521.418274,216.893723 519.958191,215.025604 
	C509.381805,231.345795 500.556885,247.925430 492.900543,265.140991 
	C486.306610,279.967743 481.562164,295.361725 478.828186,311.363892 
	C478.548553,313.000702 478.321045,314.653229 478.193756,316.308044 
	C477.541840,324.783142 477.581207,324.871735 482.272430,330.563904 
	C478.736664,333.669342 474.697571,332.642609 472.773926,327.889954 
	C470.896637,323.251923 471.502655,318.370392 472.199951,313.591827 
	C476.118744,286.737061 485.804840,261.871185 498.260712,237.938400 
	C502.401581,229.982086 506.767731,222.152451 511.571167,214.180450 
	C508.497314,212.520233 505.624969,213.115082 502.920593,213.088150 
	C495.424774,213.013504 487.926758,213.169281 480.429535,213.223679 
	C477.952148,213.241653 475.965149,213.794754 474.834351,216.439362 
	C468.353851,231.595505 461.259460,246.488480 455.375824,261.900116 
	C455.148224,262.496277 455.133698,263.173767 454.958679,264.157257 
	C458.992889,265.602417 462.879913,264.107788 467.204987,264.040466 
M462.409119,227.002777 
	C464.073395,223.071915 465.737671,219.141037 467.812622,214.240158 
	C451.509216,215.893738 436.116730,217.373703 419.438171,221.540527 
	C434.938995,231.862534 442.654968,245.670792 447.191437,262.819794 
	C452.532745,250.228622 457.311951,238.962570 462.409119,227.002777 
z"/>
<path fill="#000000" opacity="1.000000" stroke="none" 
	d="
M364.657776,286.898438 
	C362.047913,287.672943 359.840210,288.517365 357.555634,288.888519 
	C350.970490,289.958282 347.274750,287.521637 344.177338,280.095367 
	C340.800293,281.787811 337.526489,283.699554 334.051636,285.119507 
	C323.303528,289.511597 318.049622,285.937103 318.443878,274.194122 
	C313.404175,275.326599 309.075134,276.729523 306.656555,281.971497 
	C300.629425,295.034546 293.398712,307.373199 283.240967,317.754913 
	C281.381104,319.655792 279.513428,321.619843 276.953186,322.606995 
	C274.179443,323.676453 271.370117,323.994659 269.002014,321.749939 
	C266.844849,319.705170 266.570953,317.138885 267.458130,314.366425 
	C268.802948,310.163666 271.155090,306.538910 273.941498,303.195862 
	C281.544434,294.073975 290.126068,285.940369 299.424347,278.581512 
	C302.936462,275.801941 304.609192,272.440216 304.633453,267.171570 
	C298.967865,270.059448 295.302673,274.226074 290.882782,277.318848 
	C289.112000,278.557953 287.551392,280.107361 285.742371,281.279877 
	C280.787262,284.491516 278.016724,283.770905 273.224945,277.907806 
	C270.716980,279.605499 268.236755,281.485168 265.567993,283.041626 
	C261.994080,285.126007 258.236267,287.800354 253.956070,285.395416 
	C249.514709,282.899963 251.142380,278.475677 251.648956,274.161652 
	C249.303986,274.851440 248.267853,276.580475 246.950684,277.871094 
	C244.567307,280.206390 242.286667,282.676300 239.254715,284.182831 
	C235.404800,286.095764 232.237854,284.342926 231.688721,280.102753 
	C230.618057,271.835327 239.327133,259.258820 247.419952,257.397766 
	C248.067123,257.248962 248.814331,256.908691 249.371170,257.092743 
	C253.884399,258.584351 258.073090,260.427643 262.901764,256.988739 
	C264.787781,255.645538 266.805389,259.118225 265.374512,262.088104 
	C263.351318,266.287384 261.141357,270.397095 259.138672,274.605713 
	C258.300018,276.368134 257.788177,278.286072 257.063782,280.312134 
	C259.825989,281.578461 261.631348,280.081116 263.359802,279.069550 
	C268.704346,275.941711 273.480133,272.121185 277.688354,267.505829 
	C284.516296,260.017273 289.159637,259.561066 297.054382,265.117401 
	C307.349945,258.945099 310.487152,261.466675 311.849731,270.978119 
	C316.619049,270.104187 321.158752,269.373749 323.519501,264.073212 
	C324.853760,261.077362 327.108093,258.481232 329.022552,255.757416 
	C330.268494,253.984711 332.007935,252.671173 334.095428,254.047363 
	C336.342255,255.528625 335.959900,257.780396 334.659027,259.780487 
	C331.297974,264.948120 327.875061,270.077057 325.401581,275.753510 
	C324.679504,277.410583 323.459473,279.283173 324.781952,280.926514 
	C326.283020,282.791779 328.508972,281.920868 330.373718,281.316467 
	C337.815063,278.904602 344.427551,275.264465 348.909485,268.516174 
	C353.003937,262.351349 358.688690,258.108307 365.460663,255.301880 
	C369.884888,253.468414 373.446167,254.520035 374.906555,257.897156 
	C376.360260,261.258820 373.798553,268.473572 370.685608,269.814636 
	C369.679718,270.247986 368.739868,270.254211 367.960815,269.404724 
	C367.155243,268.526276 367.433655,267.563934 367.857086,266.617584 
	C368.655792,264.832642 370.281738,263.406036 370.234802,261.228058 
	C362.802460,262.290680 352.022003,273.428589 351.503418,280.468231 
	C351.263916,283.719696 353.400482,283.961060 355.714752,283.877716 
	C363.385284,283.601471 369.630646,279.842499 375.810699,275.766937 
	C379.042786,273.635468 381.272980,269.946167 385.448639,269.138702 
	C387.479675,271.937500 385.355804,273.420654 383.903015,274.774689 
	C378.369476,279.932007 372.054810,283.921509 364.657776,286.898438 
M278.862396,313.349121 
	C286.124146,304.949371 292.457733,295.916870 297.665955,285.882507 
	C282.510895,297.250092 272.175598,310.321869 272.981110,317.116486 
	C275.342590,316.935852 276.715210,315.158539 278.862396,313.349121 
M238.949203,274.939270 
	C238.792236,275.950623 237.545120,276.819977 238.693558,278.286499 
	C243.668304,273.572815 249.953323,270.226807 252.523926,263.391052 
	C250.015015,261.471313 248.411804,262.661316 246.801361,263.965240 
	C243.354172,266.756348 240.948318,270.304718 238.949203,274.939270 
M285.927368,268.488281 
	C283.393707,270.858032 281.162811,273.397491 280.702118,277.880402 
	C286.417816,276.272156 289.679596,272.548920 293.117218,269.034607 
	C290.917145,265.674866 288.752808,266.420959 285.927368,268.488281 
z"/>
<path fill="#000000" opacity="1.000000" stroke="none" 
	d="
M558.663818,270.662048 
	C560.439087,267.058319 562.063171,263.780487 563.592285,260.458954 
	C564.170593,259.202728 564.686035,257.941956 566.293213,257.910614 
	C567.956482,257.878143 568.533630,259.202393 568.955261,260.468781 
	C569.542786,262.233459 570.316711,263.855225 571.583618,265.236755 
	C574.038391,267.913666 576.274902,268.641663 578.893677,265.209900 
	C582.140869,260.954620 586.702698,258.553101 591.848083,257.245636 
	C594.591858,256.548462 596.843079,257.359009 598.319580,259.755188 
	C599.947754,262.397339 598.663940,264.567230 596.767090,266.418854 
	C594.059326,269.061981 590.609619,270.329895 587.032959,271.239502 
	C585.384766,271.658630 583.787781,272.084717 582.731506,273.523163 
	C581.725952,274.892517 580.816467,276.386566 581.603882,278.133392 
	C582.332153,279.749023 583.945007,279.780914 585.463196,279.885925 
	C593.201599,280.421143 604.214844,274.126831 607.755249,267.065582 
	C609.097656,264.388092 610.298035,261.639404 611.565247,258.924133 
	C612.355835,257.230225 613.585999,256.183624 615.524475,256.787231 
	C617.657898,257.451569 618.265503,259.193542 617.776611,261.164001 
	C617.224365,263.389984 616.361633,265.538879 615.389038,268.455811 
	C618.747009,267.556366 620.416443,265.247620 622.484619,263.602814 
	C627.133789,259.905457 629.045288,259.984619 632.935852,264.404144 
	C635.879822,267.748413 638.892151,270.740845 643.911194,270.067230 
	C645.081909,269.910126 646.364929,270.218750 646.492249,271.754150 
	C646.611816,273.195251 645.448425,273.767639 644.345703,274.156525 
	C638.932678,276.065460 634.645081,273.408691 631.434570,269.793762 
	C627.898621,265.812531 625.271240,266.378082 622.058472,269.699921 
	C618.356384,273.527710 614.409973,277.128052 610.835815,281.068634 
	C606.086670,286.304657 605.177307,286.341400 601.402344,280.267456 
	C597.923706,281.607758 594.473816,283.212830 590.864075,284.273590 
	C581.805420,286.935516 576.568542,283.606628 574.769958,274.420868 
	C573.870178,269.825623 569.075928,269.998352 566.317749,267.173645 
	C563.277893,271.811066 560.527710,276.111847 557.654724,280.329010 
	C556.727356,281.690277 555.627075,283.019135 554.348450,284.040588 
	C549.484436,287.926392 546.117126,286.052063 544.071716,278.423401 
	C532.111633,285.647583 530.940430,285.391815 528.800842,274.804535 
	C525.979797,274.402771 523.027771,275.245117 520.096191,274.572144 
	C518.080994,274.109497 517.414307,276.185974 516.553955,277.553833 
	C514.675293,280.540588 512.613586,283.350494 509.487396,285.158112 
	C503.758209,288.470825 497.763245,285.337616 497.959869,278.771912 
	C498.223541,269.966827 502.882996,263.310760 509.960480,258.519073 
	C513.639832,256.028076 517.698975,258.782288 519.614197,264.103790 
	C520.434814,266.383850 518.914734,270.353394 523.639038,270.250916 
	C527.942322,270.157562 530.993042,268.687103 532.053284,264.111877 
	C532.498962,262.188293 533.415894,260.358307 534.244995,258.543549 
	C535.083008,256.709290 535.960876,254.641724 538.632446,255.774033 
	C541.033081,256.791504 541.735107,258.859680 540.956909,261.148651 
	C539.618958,265.084015 537.956848,268.908173 536.511841,272.809021 
	C536.177246,273.712250 536.169312,274.736572 535.913391,276.303619 
	C540.812500,273.928802 543.497375,269.943909 546.671021,266.526703 
	C548.008728,265.086334 549.089172,262.961853 551.527222,264.439819 
	C553.638489,265.719666 553.329102,267.836121 552.805420,269.821198 
	C552.057922,272.655029 550.613953,275.380219 551.656189,279.109772 
	C554.816284,276.757111 556.539368,273.767059 558.663818,270.662048 
M510.677460,269.214020 
	C509.927155,268.613892 508.893036,267.479218 508.197021,268.585358 
	C506.066254,271.971619 503.440308,275.318512 504.606262,279.894958 
	C510.829285,277.646179 513.194458,273.810120 510.677460,269.214020 
z"/>
<path fill="#000000" opacity="1.000000" stroke="none" 
	d="
M694.944031,231.870377 
	C699.596252,228.305023 704.343384,226.240524 710.020752,226.759354 
	C717.212280,227.416580 720.428467,233.151978 717.026794,239.596725 
	C713.133179,246.973526 706.076477,251.054428 699.778442,255.913559 
	C697.958130,257.318024 695.584839,258.398651 696.510193,261.389954 
	C697.000916,262.976318 697.502991,264.686401 699.169617,265.433411 
	C701.119324,266.307343 702.271667,264.770264 703.419922,263.623596 
	C706.013428,261.033508 708.472290,258.270264 711.743958,256.514099 
	C713.486755,255.578583 715.359375,254.828339 717.250244,254.242355 
	C718.923767,253.723755 720.767639,253.868179 721.606384,255.655060 
	C722.606812,257.786469 720.736877,258.578125 719.298584,259.364075 
	C715.018005,261.703156 711.552063,265.095398 707.768616,268.085175 
	C704.283142,270.839478 703.897705,273.170715 708.011292,275.633331 
	C709.859680,276.739838 711.539185,278.137909 713.246826,279.466064 
	C714.241089,280.239319 714.836975,281.264679 714.039917,282.497223 
	C713.275757,283.678772 711.991089,283.792023 710.934204,283.217285 
	C708.307983,281.789154 705.640869,280.358093 703.270142,278.559143 
	C700.695312,276.605286 698.674561,276.704803 696.292847,278.863098 
	C693.183228,281.681091 689.588684,283.827545 685.450806,284.822327 
	C681.677124,285.729553 678.099426,285.435089 675.416748,282.203369 
	C672.768982,279.013611 673.633362,275.642914 675.282837,272.379791 
	C677.415466,268.160919 680.328613,264.457947 684.091736,261.655914 
	C687.288818,259.275360 688.292358,256.478638 687.924988,252.628052 
	C687.184631,244.868866 688.521729,237.664749 694.944031,231.870377 
M698.280640,250.436157 
	C703.265198,246.594376 708.823547,243.378006 712.309021,237.886124 
	C713.172363,236.525803 714.255066,234.990829 713.069336,233.287247 
	C712.087036,231.875778 710.475281,231.969452 708.983154,231.987076 
	C700.394348,232.088470 692.882263,242.191071 695.225037,250.375290 
	C695.858459,252.588013 696.814148,251.230835 698.280640,250.436157 
M682.323364,270.837830 
	C681.256714,272.510010 680.063477,274.116882 679.157471,275.872009 
	C678.167725,277.789398 678.955750,279.028351 681.041321,279.511414 
	C683.966003,280.188904 692.718628,276.204620 693.955566,273.050842 
	C695.551880,268.980469 691.799500,267.116852 689.925354,264.464111 
	C686.791931,265.868469 684.781128,268.076263 682.323364,270.837830 
z"/>
<path fill="#000000" opacity="1.000000" stroke="none" 
	d="
M970.985596,261.316284 
	C971.238098,260.547272 971.556274,259.775482 971.381592,259.640228 
	C968.090942,257.092377 965.546875,259.756073 963.039917,261.173401 
	C960.984436,262.335480 958.590820,263.789612 959.990906,267.066223 
	C962.085144,271.967743 964.025146,272.762177 969.180969,271.013000 
	C972.477844,269.894562 975.865356,269.016449 979.255249,268.211761 
	C980.797180,267.845734 982.583801,267.377289 983.677490,269.297638 
	C983.356750,271.432007 981.503113,271.600677 980.015808,272.164948 
	C977.220520,273.225433 974.426392,274.304962 971.577271,275.203613 
	C967.442993,276.507599 965.113525,278.880615 964.144897,283.437866 
	C962.645325,290.493134 958.129211,295.562195 951.266052,298.191528 
	C948.458496,299.267151 945.659729,299.170227 943.487610,296.678711 
	C941.173157,294.023834 942.291199,291.442749 943.771301,288.876648 
	C946.346680,284.411499 950.317139,281.347504 954.500183,278.640289 
	C957.482910,276.709961 958.297546,274.790863 956.187256,271.766083 
	C953.311401,267.644135 951.895691,263.420288 955.962891,259.131714 
	C960.344971,254.511078 969.239929,252.106430 973.817749,254.301880 
	C976.147949,255.419479 977.357361,257.185852 977.293518,259.830627 
	C977.226318,262.613525 975.684448,264.483612 973.568542,265.956818 
	C972.695862,266.564392 971.645203,266.471802 970.821960,265.682526 
	C969.423889,264.341980 970.067139,262.968323 970.985596,261.316284 
M950.453918,289.510773 
	C950.145996,290.222137 949.426208,290.833740 950.043213,292.008972 
	C954.088318,290.807495 955.874023,287.771912 957.101501,284.233246 
	C954.240356,284.992584 952.611450,287.091522 950.453918,289.510773 
z"/>
<path fill="#000000" opacity="1.000000" stroke="none" 
	d="
M488.679901,340.857086 
	C488.415588,342.021545 488.445557,342.816895 489.603577,343.735077 
	C491.803162,341.781036 493.001556,337.913971 497.041443,338.543671 
	C498.585693,338.784363 499.955933,339.316925 500.968414,340.512665 
	C503.660217,343.691559 503.533997,347.070587 500.869781,350.010986 
	C497.162109,354.103027 493.723938,351.745300 490.480682,348.786194 
	C489.327972,349.655609 488.367554,350.595367 487.229584,351.202271 
	C481.232971,354.400360 476.793396,351.826599 476.796570,345.219269 
	C476.797363,343.553070 476.823547,341.886414 476.793091,340.220764 
	C476.734344,337.008820 476.933075,334.071320 481.315094,334.061188 
	C486.133087,334.050049 488.359467,335.926727 488.679901,340.857086 
M497.682983,347.562378 
	C499.041260,345.724976 499.419830,343.887024 497.110107,342.604065 
	C496.124817,342.056763 495.130066,342.865173 494.818787,343.888794 
	C494.184937,345.973328 494.036926,347.925049 497.682983,347.562378 
z"/>
<path fill="#000000" opacity="1.000000" stroke="none" 
	d="
M523.215942,342.823608 
	C524.136047,339.727234 522.550598,336.422729 525.760193,333.442230 
	C526.778625,339.270538 533.154297,338.183868 535.476685,342.239075 
	C540.325867,338.150177 543.933472,337.552429 546.721924,340.363373 
	C549.122925,342.783722 548.931580,347.882446 546.347168,350.350220 
	C543.343079,353.218658 540.331482,352.682281 534.968018,347.850891 
	C534.345764,348.768433 533.849548,349.893250 533.018738,350.651062 
	C530.612793,352.845367 527.649231,352.466339 525.006470,351.504944 
	C522.662659,350.652283 523.475830,348.129028 523.334839,346.214142 
	C523.261536,345.219086 523.235168,344.220551 523.215942,342.823608 
M543.798584,347.073059 
	C544.715332,345.071198 545.172546,343.035339 542.297058,342.496857 
	C540.605652,342.180145 540.135864,343.749756 540.176147,345.155731 
	C540.235168,347.213165 540.703491,348.940735 543.798584,347.073059 
M530.649963,342.904633 
	C527.925659,341.777588 527.508423,343.534149 527.480469,345.547028 
	C527.465576,346.617584 528.139160,347.669128 529.255493,347.479065 
	C531.682068,347.065918 531.857605,345.376648 530.649963,342.904633 
z"/>
<path fill="#000000" opacity="1.000000" stroke="none" 
	d="
M641.628113,351.373413 
	C639.339661,347.864838 640.854858,344.375732 640.863892,340.979340 
	C640.869019,339.042633 642.655884,338.880646 644.198364,338.785248 
	C647.345154,338.590668 650.381531,338.084167 652.716797,335.317810 
	C654.532349,336.945435 656.097656,338.348724 657.774414,339.851990 
	C657.087646,342.616150 652.190308,345.312225 657.831909,348.533600 
	C659.500305,344.695648 658.813354,340.899109 659.006653,337.271942 
	C659.096802,335.581024 659.059265,334.093689 661.115051,334.193817 
	C662.811340,334.276459 662.914673,335.685059 662.916992,337.157776 
	C662.922180,340.460876 663.219788,343.764038 663.206909,347.066437 
	C663.197998,349.344604 663.471741,351.909241 659.744873,351.719757 
	C656.180054,351.538513 651.774231,353.624298 650.842957,347.687164 
	C650.591858,346.086487 651.231812,344.249359 649.911804,342.929047 
	C648.990479,342.007446 647.734619,342.235260 646.625916,342.654419 
	C645.020996,343.261230 644.684998,344.663483 644.337036,346.201263 
	C643.905273,348.109650 645.798401,351.154327 641.628113,351.373413 
z"/>
<path fill="#000000" opacity="1.000000" stroke="none" 
	d="
M667.206543,339.241638 
	C670.713440,337.569489 673.256531,339.068451 675.863342,341.113861 
	C679.008728,338.199554 682.339600,336.903442 685.892029,340.392670 
	C688.553833,343.007141 688.690308,346.058380 686.841553,349.003723 
	C684.946228,352.023407 682.081177,352.987305 678.647888,351.461151 
	C677.359741,350.888550 676.260681,349.333618 674.617004,350.480682 
	C671.050049,352.969788 667.614746,353.015167 665.116211,349.265137 
	C662.730957,345.685059 663.994141,342.306732 667.206543,339.241638 
M674.244446,346.869049 
	C675.302368,345.063354 674.824097,343.757416 672.921326,342.982971 
	C671.695007,342.483856 670.415344,342.076691 669.243469,343.098907 
	C668.435486,343.803650 668.164185,344.816254 668.444458,345.777649 
	C669.360168,348.919250 671.650024,347.677795 674.244446,346.869049 
M683.666626,344.879181 
	C683.449036,343.404266 682.854065,342.253998 681.122681,342.868286 
	C679.959167,343.281097 679.415588,344.361237 679.422058,345.606995 
	C679.427734,346.691284 679.916443,347.539246 681.050598,347.722961 
	C682.683472,347.987396 683.469910,347.099854 683.666626,344.879181 
z"/>
<path fill="#000000" opacity="1.000000" stroke="none" 
	d="
M751.780151,337.200989 
	C753.203918,341.707581 750.204346,346.021942 752.668579,350.399170 
	C753.356995,351.621948 750.703552,352.184479 749.479370,350.884735 
	C748.169128,349.493622 747.163330,347.815735 746.058289,346.308716 
	C743.737366,347.469330 745.784546,352.130920 742.223083,351.141541 
	C739.469116,350.376465 740.923096,347.129028 740.636780,344.964569 
	C740.485718,343.822571 740.429321,342.640289 740.541748,341.496948 
	C740.784546,339.026764 739.377930,335.805359 742.689758,334.536499 
	C746.018494,333.261169 749.221008,333.817505 751.780151,337.200989 
z"/>
<path fill="#000000" opacity="1.000000" stroke="none" 
	d="
M765.980347,351.028320 
	C766.436279,349.462982 767.162292,347.921417 767.302368,346.328339 
	C767.972839,338.701874 769.965576,337.322540 777.686279,339.505554 
	C778.091675,341.880371 777.322632,344.106781 776.028198,345.960205 
	C774.620422,347.976044 776.049194,348.513489 777.651855,349.736572 
	C778.370239,350.387634 778.665100,350.663513 778.959961,350.939362 
	C777.993530,354.609924 775.654846,356.423126 771.819275,356.275024 
	C768.778137,356.157562 766.277771,355.391205 765.997620,351.372864 
	C766.006042,350.995880 765.980347,351.028320 765.980347,351.028320 
z"/>
<path fill="#000000" opacity="1.000000" stroke="none" 
	d="
M518.613525,350.845337 
	C517.147522,348.220886 518.625793,345.269073 516.939331,342.938171 
	C514.273926,343.699829 515.182312,345.671661 514.967957,347.130707 
	C514.730469,348.747772 514.906494,350.498230 512.953674,351.623901 
	C508.795197,349.975677 512.344849,345.428314 509.662140,342.839539 
	C506.260651,344.793854 509.813202,349.904053 505.551666,351.787781 
	C502.646210,348.270325 503.335724,344.214081 504.361206,340.637482 
	C505.242096,337.565155 508.608765,339.005402 510.945709,338.799805 
	C512.244873,338.685547 513.634216,339.128571 514.868042,338.836090 
	C517.660767,338.174103 519.964966,338.638000 521.169678,341.358490 
	C522.558655,344.495178 522.778015,347.804077 521.118225,350.950165 
	C520.697266,351.748108 519.678162,351.578247 518.613525,350.845337 
z"/>
<path fill="#000000" opacity="1.000000" stroke="none" 
	d="
M720.993652,347.008728 
	C719.539001,348.839294 717.935913,350.456451 715.668274,351.312683 
	C709.263611,353.731110 706.541504,351.917999 706.580444,345.218903 
	C706.586182,344.227417 706.409485,343.226044 706.497681,342.245483 
	C706.783081,339.069702 704.929565,334.794342 710.336487,334.091003 
	C715.172668,333.461914 720.439514,337.186981 721.075378,341.666260 
	C721.282349,343.124481 721.109253,344.636658 721.055420,346.561340 
	C721.000793,346.998535 720.993652,347.008728 720.993652,347.008728 
M710.259705,342.622223 
	C710.580750,344.560486 709.293579,347.427216 712.649292,347.718719 
	C715.308716,347.949707 716.495911,346.093262 716.707153,343.638458 
	C716.908752,341.295105 716.348022,339.185242 713.811401,338.476715 
	C711.019836,337.696960 710.297058,339.464661 710.259705,342.622223 
z"/>
<path fill="#000000" opacity="1.000000" stroke="none" 
	d="
M631.248352,334.599762 
	C633.751770,335.921356 639.524963,347.741089 639.030762,349.940765 
	C638.904907,350.501434 638.468079,351.179443 637.981079,351.433502 
	C636.916992,351.988495 636.088196,351.322296 635.468750,350.481964 
	C632.956360,347.073639 630.407654,347.304688 627.806458,350.363770 
	C627.020081,351.288452 626.143494,352.101471 624.849854,351.404205 
	C624.041870,350.968658 623.703552,350.036743 624.074707,349.261444 
	C626.394165,344.415955 626.854797,338.696930 631.248352,334.599762 
z"/>
<path fill="#000000" opacity="1.000000" stroke="none" 
	d="
M448.992859,342.330017 
	C445.849640,342.441559 445.197357,344.271729 445.188660,346.723053 
	C445.182404,348.492126 445.414490,350.438904 442.877197,351.794922 
	C439.698029,348.440765 440.403473,344.259888 441.552551,340.839142 
	C442.854462,336.963501 446.902710,339.054871 449.901398,338.765167 
	C450.596222,337.377686 449.049866,334.566010 451.907684,334.536041 
	C454.862549,334.505035 453.824127,336.965637 453.860931,338.648926 
	C453.936981,342.131012 454.065887,345.613190 454.059021,349.095123 
	C454.056580,350.329041 453.531067,351.437469 451.984344,351.312103 
	C450.765381,351.213226 450.468353,350.205383 450.200653,349.219574 
	C449.595734,346.991913 450.669006,344.545013 448.992859,342.330017 
z"/>
<path fill="#000000" opacity="1.000000" stroke="none" 
	d="
M567.867554,344.260956 
	C568.878113,340.059174 570.695679,337.170258 575.208801,338.492218 
	C577.679626,339.216003 579.816040,341.016693 579.714111,343.851868 
	C579.584534,347.457001 575.965149,346.282806 573.877747,347.422760 
	C575.360229,348.803101 577.614075,347.011597 579.083374,349.130249 
	C578.552551,352.212158 575.972595,352.352997 573.567017,352.060608 
	C569.345825,351.547485 567.709290,348.714508 567.867554,344.260956 
z"/>
<path fill="#000000" opacity="1.000000" stroke="none" 
	d="
M766.019836,350.980225 
	C764.088318,351.344147 762.151672,351.978821 760.195740,352.045349 
	C757.015991,352.153534 754.709473,350.484314 754.033325,347.370087 
	C753.327026,344.117096 753.939636,340.989777 757.058716,339.100769 
	C759.523621,337.607941 761.862976,338.334015 763.816284,340.279602 
	C765.118225,341.576447 766.418701,342.982208 765.644653,345.058624 
	C764.911255,347.025665 763.208435,347.007080 761.493042,346.902496 
	C760.725220,346.855652 759.952148,346.894562 758.385620,346.894562 
	C760.802429,349.531891 764.952637,346.415955 765.863892,350.702087 
	C765.980347,351.028320 766.006042,350.995880 766.019836,350.980225 
z"/>
<path fill="#000000" opacity="1.000000" stroke="none" 
	d="
M779.324097,351.049347 
	C778.665100,350.663513 778.370239,350.387634 777.835144,349.919556 
	C778.531311,346.483398 780.748291,344.447601 784.003784,343.440460 
	C782.909485,341.508179 780.914917,343.399902 779.840393,341.731354 
	C779.814392,341.513794 779.528931,340.848907 779.737000,340.604919 
	C782.394165,337.489502 786.181702,337.588318 788.399536,340.890717 
	C790.377441,343.835938 791.202637,347.735046 789.255859,350.242065 
	C787.090881,353.030212 783.057251,352.307037 779.324097,351.049347 
z"/>
<path fill="#000000" opacity="1.000000" stroke="none" 
	d="
M599.747253,346.300476 
	C597.980957,347.063049 596.167542,345.868164 594.760132,347.149628 
	C596.204163,349.928955 599.186523,346.512787 600.649658,349.327209 
	C599.311218,352.929871 596.331909,352.528503 593.541382,351.514160 
	C590.044861,350.243256 588.670532,345.386902 590.527100,341.752380 
	C592.137329,338.600067 594.755188,337.344391 597.914490,339.040070 
	C600.674072,340.521240 602.859070,342.727844 599.747253,346.300476 
z"/>
<path fill="#000000" opacity="1.000000" stroke="none" 
	d="
M559.713257,351.377075 
	C556.565674,351.569702 557.039490,349.410858 556.770996,347.687927 
	C556.514038,346.038147 557.487427,343.964661 555.090881,342.811310 
	C552.544434,344.209961 554.076172,346.614105 553.711487,348.503113 
	C553.431274,349.954529 553.298767,351.747162 551.288513,351.639252 
	C549.655762,351.551575 549.161560,349.936707 549.262573,348.664093 
	C549.536926,345.205963 546.918640,340.665314 551.961975,338.778381 
	C557.114136,336.850708 560.442749,339.098450 561.013428,344.519073 
	C561.249390,346.760468 561.794373,349.165955 559.713257,351.377075 
z"/>
<path fill="#000000" opacity="1.000000" stroke="none" 
	d="
M721.004761,346.991669 
	C722.785583,344.976624 725.202576,343.971375 728.038330,343.194794 
	C726.149292,341.553497 723.784241,343.618103 722.534607,341.081909 
	C723.694092,338.018921 726.300476,337.939148 728.881226,338.787109 
	C733.407471,340.274323 732.205322,344.316284 732.357422,347.654480 
	C732.450989,349.706299 732.343628,351.615021 729.482544,351.948395 
	C725.678040,352.391693 722.438721,352.124451 721.120056,347.349152 
	C720.993652,347.008728 721.000793,346.998535 721.004761,346.991669 
z"/>
<path fill="#000000" opacity="1.000000" stroke="none" 
	d="
M438.985962,341.336487 
	C440.163544,343.126282 440.359711,344.753265 440.051910,346.422943 
	C439.480957,349.520111 437.644623,351.496338 434.506012,351.962799 
	C431.703705,352.379242 429.589600,350.991211 428.472290,348.563110 
	C427.026428,345.420959 427.597473,342.387726 430.089386,339.907532 
	C432.161407,337.845245 434.538483,338.003082 436.899200,339.395233 
	C437.595215,339.805603 438.141113,340.470581 438.985962,341.336487 
M433.708038,342.492401 
	C432.554840,342.670013 432.165344,343.554993 431.830536,344.502228 
	C431.412140,345.685974 431.527893,346.766449 432.497681,347.629456 
	C433.142090,348.202911 433.903015,348.480957 434.724030,347.979187 
	C435.884583,347.269836 435.878174,346.097351 435.827789,344.944305 
	C435.782196,343.899658 435.333862,343.070770 433.708038,342.492401 
z"/>
<path fill="#000000" opacity="1.000000" stroke="none" 
	d="
M410.612244,341.840088 
	C411.073151,338.982727 409.411377,335.613831 413.083374,334.615204 
	C415.835510,333.866791 418.913940,333.138458 421.015228,336.074341 
	C419.995239,339.694763 415.592499,336.627533 414.516663,339.830231 
	C415.497925,342.530304 419.310211,340.047821 420.159882,343.073090 
	C420.240753,344.191681 419.399445,344.782074 418.361450,344.892883 
	C415.910034,345.154449 414.243469,346.027496 414.260132,348.853149 
	C414.267242,350.060699 413.892151,351.311432 412.324493,351.218475 
	C410.506836,351.110687 410.387512,349.618439 410.386414,348.273895 
	C410.384796,346.278259 410.530487,344.282501 410.612244,341.840088 
z"/>
<path fill="#000000" opacity="1.000000" stroke="none" 
	d="
M800.605713,351.739502 
	C798.876404,350.900208 797.861389,349.833405 797.194031,348.470032 
	C795.528687,345.067780 797.009521,340.494202 800.190002,339.110474 
	C803.316040,337.750397 806.983154,339.424652 808.203186,342.768890 
	C809.662109,346.767944 807.814331,350.738892 803.896301,351.799377 
	C802.980591,352.047211 801.947388,351.861328 800.605713,351.739502 
M804.303284,343.419891 
	C802.322693,341.562744 801.012878,342.339081 800.464294,344.614014 
	C800.108337,346.090302 800.438049,348.059845 802.141724,348.188354 
	C805.072266,348.409454 804.796387,346.067047 804.303284,343.419891 
z"/>
<path fill="#000000" opacity="1.000000" stroke="none" 
	d="
M562.549316,340.134918 
	C562.517700,338.425354 562.266968,337.082947 562.466919,335.811432 
	C562.631287,334.766083 563.607849,334.226105 564.748718,334.356506 
	C565.699768,334.465179 566.376770,335.147400 566.387085,335.976624 
	C566.442688,340.431427 567.689453,344.884979 566.452942,349.343536 
	C566.133240,350.496246 565.794373,351.710724 564.241638,351.492920 
	C562.863647,351.299591 562.379089,350.147430 562.202637,348.968567 
	C561.780090,346.145752 562.014954,343.329620 562.549316,340.134918 
z"/>
<path fill="#000000" opacity="1.000000" stroke="none" 
	d="
M688.799438,345.742279 
	C689.217102,341.558319 687.625366,337.490509 690.314087,333.871094 
	C694.010986,337.299561 694.190125,347.702698 690.841553,351.661987 
	C688.174072,350.589417 689.036255,348.170135 688.799438,345.742279 
z"/>
<path fill="#000000" opacity="1.000000" stroke="none" 
	d="
M695.092041,335.204529 
	C696.480408,333.754181 698.412537,333.704712 698.422363,335.167999 
	C698.458557,340.583984 700.329956,346.208832 697.148010,352.484955 
	C692.490906,346.677582 696.044983,340.775879 695.092041,335.204529 
z"/>
<path fill="#000000" opacity="1.000000" stroke="none" 
	d="
M581.117920,340.639160 
	C582.414673,338.291107 584.445435,338.832886 586.167908,338.576233 
	C587.349792,338.400085 588.608215,338.587433 589.086243,339.892822 
	C589.610107,341.323273 588.660828,341.997986 587.430542,342.396118 
	C585.162292,343.130157 585.349121,345.030487 585.212952,346.868683 
	C585.074951,348.732574 585.480713,351.578430 582.766907,351.385284 
	C580.066711,351.193054 580.951904,348.339325 580.856873,346.494812 
	C580.763672,344.684601 580.931396,342.860992 581.117920,340.639160 
z"/>
<path fill="#000000" opacity="1.000000" stroke="none" 
	d="
M793.192139,351.287170 
	C789.592346,345.534851 791.940857,339.888245 792.162720,333.336792 
	C795.939880,336.908356 796.224670,347.267639 793.192139,351.287170 
z"/>
<path fill="#000000" opacity="1.000000" stroke="none" 
	d="
M422.858826,349.248474 
	C423.162292,345.621674 421.521820,342.028778 424.421539,339.144379 
	C426.842651,341.644836 427.874268,348.499023 426.157593,350.465881 
	C424.714020,352.119843 423.631592,351.416229 422.858826,349.248474 
z"/>
<path fill="#000000" opacity="1.000000" stroke="none" 
	d="
M335.060425,248.054031 
	C335.979279,245.591156 337.460632,244.418182 339.748322,245.057602 
	C341.489532,245.544281 342.455444,246.848190 342.381561,248.764236 
	C342.317169,250.435013 341.469513,251.687759 339.942230,252.133942 
	C336.788391,253.055344 335.313507,251.449432 335.060425,248.054031 
z"/>
<path fill="#000000" opacity="1.000000" stroke="none" 
	d="
M614.814453,346.267181 
	C612.616211,346.629059 610.632446,347.375031 609.177490,344.929352 
	C610.581360,342.544830 612.771362,342.478424 614.956848,343.283081 
	C616.550171,343.869720 616.676941,345.089355 614.814453,346.267181 
z"/>
<path fill="#000000" opacity="1.000000" stroke="none" 
	d="
M462.238953,345.571350 
	C464.515167,342.266266 464.785767,342.238129 468.823761,344.689148 
	C467.059753,347.358002 464.833527,347.037384 462.238953,345.571350 
z"/>
<path fill="#000000" opacity="1.000000" stroke="none" 
	d="
M93.678619,275.375366 
	C90.728668,272.864349 88.298050,270.350891 86.507439,267.309387 
	C84.183472,263.361938 85.014465,261.846741 89.540382,261.723480 
	C93.915970,261.604309 98.131424,262.582550 102.309891,263.755066 
	C104.051819,264.243866 105.799286,264.712921 108.479088,265.447083 
	C106.825485,259.260101 107.913422,254.191742 112.113564,250.020721 
	C115.181053,246.974518 118.854950,245.156570 123.088493,244.572037 
	C126.125549,244.152725 128.717407,245.146896 130.323761,247.909149 
	C132.007172,250.803925 130.442261,253.156403 128.533188,255.041260 
	C126.458862,257.089264 124.047333,259.077179 120.780807,256.970612 
	C121.012024,254.242935 123.581573,254.693451 124.765610,253.463882 
	C125.702454,252.490997 126.922539,251.559311 126.327873,250.092300 
	C125.644485,248.406433 124.114334,248.380814 122.513535,248.753204 
	C117.583984,249.899994 114.057106,252.877090 112.437782,257.541534 
	C111.074608,261.468170 112.029739,265.364227 115.733475,267.666840 
	C119.506752,270.012695 123.726181,269.710846 126.730949,266.443207 
	C133.592010,258.981934 137.002060,250.251541 134.694244,239.932968 
	C134.368515,238.476578 133.854950,237.062103 133.532196,235.605225 
	C133.436325,235.172409 133.695190,234.661011 133.786530,234.210190 
	C139.909348,233.428528 148.787094,242.721146 152.072906,253.259613 
	C156.244995,266.640656 151.542114,276.442383 136.898529,284.270081 
	C138.278091,287.174103 139.831146,290.047089 141.022324,293.063019 
	C142.197235,296.037811 143.382202,299.116364 142.680496,302.483337 
	C140.223343,302.516357 140.202927,300.985016 139.785629,299.810150 
	C138.896622,297.307281 138.162659,294.736847 137.096756,292.312042 
	C135.022537,287.593567 132.381271,285.233246 126.128227,285.604034 
	C114.495491,286.293823 103.385910,283.106567 93.678619,275.375366 
M144.909698,248.687088 
	C143.500595,246.361481 142.015137,244.107941 139.472122,242.183472 
	C138.798019,255.238495 135.029617,265.918579 123.401894,272.745300 
	C124.844856,273.855316 126.266830,274.953796 127.693642,276.045959 
	C134.347733,281.139404 138.294891,280.755341 144.044296,274.470428 
	C145.752594,272.603027 146.965347,270.458466 147.736969,268.053558 
	C149.864410,261.422882 148.085648,255.304123 144.909698,248.687088 
M113.847321,272.678772 
	C107.003342,270.035736 100.320816,266.730743 92.403542,266.855927 
	C95.650452,275.681274 115.187126,283.171051 127.091301,281.001312 
	C123.445000,277.144867 118.836212,275.303528 113.847321,272.678772 
z"/>
</svg>